<svg width="16" height="16" viewBox="0 0 16 16" fill="none" xmlns="http://www.w3.org/2000/svg">
<path d="M11.5 10.6C11.3 10.7 11.1 10.7 10.9 10.7C9.09997 10.7 6.49998 4.5 6.49998 2.4C6.49998 1.6 6.69998 1.4 6.89998 1.2C4.79998 1.5 2.19998 2.3 1.39998 3.3C1.19998 3.5 1.09998 3.9 1.09998 4.4C1.09998 7.7 4.49998 15 6.99998 15C8.09998 15 9.99998 13.2 11.5 10.6ZM10.4 1C12.6 1 14.9 1.4 14.9 2.6C14.9 5.2 13.3 8.3 12.4 8.3C10.9 8.3 9.09998 4.2 9.09998 2.1C9.09998 1.2 9.49997 1 10.4 1Z" fill="black"/>
</svg>
